<?xml version="1.0" encoding="UTF-8"?>
<!DOCTYPE svg PUBLIC "-//W3C//DTD SVG 1.1//EN" "http://www.w3.org/Graphics/SVG/1.1/DTD/svg11.dtd">
<svg xmlns="http://www.w3.org/2000/svg" version="1.1" width="76px" height="70px" style="shape-rendering:geometricPrecision; text-rendering:geometricPrecision; image-rendering:optimizeQuality; fill-rule:evenodd; clip-rule:evenodd" xmlns:xlink="http://www.w3.org/1999/xlink">
<g><path style="opacity:0.004" fill="#fefffe" d="M 7.5,20.5 C 6.83333,19.1667 6.83333,19.1667 7.5,20.5 Z"/></g>
<g><path style="opacity:1" fill="#b4b2bd" d="M 59.5,68.5 C 63.7707,54.9881 68.2707,41.6548 73,28.5C 62.8161,17.9812 50.8161,10.3145 37,5.5C 23.749,10.7501 12.0824,18.4168 2,28.5C 1.33333,29.8333 1.33333,31.1667 2,32.5C 7.89704,43.9635 12.397,55.9635 15.5,68.5C 14.5,68.5 13.5,68.5 12.5,68.5C 12.5793,65.7294 12.0793,63.0627 11,60.5C 6.70236,51.5622 2.86903,42.5622 -0.5,33.5C -0.5,31.5 -0.5,29.5 -0.5,27.5C 2.19204,25.1377 4.8587,22.8044 7.5,20.5C 16.3654,13.2327 26.0321,7.23269 36.5,2.5C 50.7036,7.85099 63.2036,15.851 74,26.5C 74.6667,29.1667 74.6667,31.8333 74,34.5C 69.4582,45.6258 65.6249,56.9591 62.5,68.5C 61.5,68.5 60.5,68.5 59.5,68.5 Z"/></g>
<g><path style="opacity:1" fill="#361ba3" d="M 59.5,68.5 C 44.8333,68.5 30.1667,68.5 15.5,68.5C 12.397,55.9635 7.89704,43.9635 2,32.5C 1.33333,31.1667 1.33333,29.8333 2,28.5C 12.0824,18.4168 23.749,10.7501 37,5.5C 50.8161,10.3145 62.8161,17.9812 73,28.5C 68.2707,41.6548 63.7707,54.9881 59.5,68.5 Z"/></g>
<g><path style="opacity:1" fill="#aebba7" d="M 47.5,16.5 C 48.391,17.1098 49.391,17.4431 50.5,17.5C 52.7559,18.4655 54.4226,20.1322 55.5,22.5C 56.325,23.3857 57.325,23.719 58.5,23.5C 59.7033,28.2966 60.7033,33.13 61.5,38C 60.1345,42.5142 58.1345,46.6809 55.5,50.5C 54.5,50.5 53.5,50.5 52.5,50.5C 52.5,49.8333 52.1667,49.5 51.5,49.5C 51.7619,47.4362 52.9286,46.1029 55,45.5C 56.4596,42.1006 57.6262,38.6006 58.5,35C 56.7369,33.3461 56.4036,31.5128 57.5,29.5C 54.9076,24.7145 51.241,21.0478 46.5,18.5C 46.8333,17.8333 47.1667,17.1667 47.5,16.5 Z"/></g>
<g><path style="opacity:1" fill="#e0d1df" d="M 47.5,16.5 C 47.1667,17.1667 46.8333,17.8333 46.5,18.5C 45.5,18.5 44.5,18.5 43.5,18.5C 43.5,17.5 43.5,16.5 43.5,15.5C 45.099,15.2322 46.4324,15.5655 47.5,16.5 Z"/></g>
<g><path style="opacity:1" fill="#f63cf7" d="M 50.5,13.5 C 58.7905,17.4906 65.7905,23.1573 71.5,30.5C 68.4304,37.3795 65.7638,44.3795 63.5,51.5C 62.1667,51.5 60.8333,51.5 59.5,51.5C 59.6495,50.448 59.4828,49.448 59,48.5C 57.1951,50.8257 55.0284,52.4923 52.5,53.5C 51.609,54.1098 50.609,54.4431 49.5,54.5C 50.1667,53.5 50.8333,52.5 51.5,51.5C 52.1667,51.5 52.5,51.1667 52.5,50.5C 53.5,50.5 54.5,50.5 55.5,50.5C 58.1345,46.6809 60.1345,42.5142 61.5,38C 60.7033,33.13 59.7033,28.2966 58.5,23.5C 57.325,23.719 56.325,23.3857 55.5,22.5C 54.4226,20.1322 52.7559,18.4655 50.5,17.5C 49.3143,16.0387 49.3143,14.7054 50.5,13.5 Z"/></g>
<g><path style="opacity:1" fill="#f23df0" d="M 50.5,13.5 C 49.3143,14.7054 49.3143,16.0387 50.5,17.5C 49.391,17.4431 48.391,17.1098 47.5,16.5C 46.4324,15.5655 45.099,15.2322 43.5,15.5C 43.5,16.5 43.5,17.5 43.5,18.5C 44.5,18.5 45.5,18.5 46.5,18.5C 51.241,21.0478 54.9076,24.7145 57.5,29.5C 56.4036,31.5128 56.7369,33.3461 58.5,35C 57.6262,38.6006 56.4596,42.1006 55,45.5C 52.9286,46.1029 51.7619,47.4362 51.5,49.5C 50.8333,49.5 50.5,49.8333 50.5,50.5C 48.6203,50.2291 47.287,50.8958 46.5,52.5C 46.1667,52.5 45.8333,52.5 45.5,52.5C 41.5784,52.845 37.7451,53.5116 34,54.5C 33.6174,53.944 33.1174,53.6107 32.5,53.5C 17.0974,46.7336 13.9307,36.4003 23,22.5C 25.7482,20.5421 28.5815,18.7088 31.5,17C 30.5,16.5 29.5,16 28.5,15.5C 13.4941,23.2471 10.4941,34.2471 19.5,48.5C 22.8639,52.6813 27.1972,55.0146 32.5,55.5C 34.134,56.1611 35.9674,56.4944 38,56.5C 40.8655,56.7001 43.3655,56.0334 45.5,54.5C 46.1667,54.5 46.8333,54.5 47.5,54.5C 48.1667,54.5 48.8333,54.5 49.5,54.5C 48.653,55.9663 47.3197,56.7996 45.5,57C 42.7314,57.8632 39.898,58.3632 37,58.5C 31.4996,57.8313 26.3329,56.1646 21.5,53.5C 19.1644,51.9962 17.331,49.9962 16,47.5C 15.4054,48.8989 15.5721,50.2322 16.5,51.5C 15.3112,52.4287 13.9778,52.762 12.5,52.5C 9.95724,45.7435 7.12391,39.0769 4,32.5C 3.33333,31.5 3.33333,30.5 4,29.5C 13.0271,20.7347 23.1938,13.5681 34.5,8C 40.5112,7.83787 45.8445,9.6712 50.5,13.5 Z"/></g>
<g><path style="opacity:1" fill="#69a1d5" d="M 45.5,44.5 C 45.8333,44.5 46.1667,44.5 46.5,44.5C 46.9175,45.2216 47.5842,45.7216 48.5,46C 46.7669,47.1889 45.1002,48.3556 43.5,49.5C 40.96,51.4127 38.2933,51.746 35.5,50.5C 34.5707,49.6851 33.5707,48.8518 32.5,48C 32.8333,47.6667 33.1667,47.3333 33.5,47C 37.6993,46.4723 41.6993,45.6389 45.5,44.5 Z"/></g>
<g><path style="opacity:1" fill="#546ba0" d="M 45.5,44.5 C 41.6993,45.6389 37.6993,46.4723 33.5,47C 33.1667,47.3333 32.8333,47.6667 32.5,48C 33.5707,48.8518 34.5707,49.6851 35.5,50.5C 31.2687,50.5963 27.9354,48.9297 25.5,45.5C 32.1311,44.669 38.7978,44.3357 45.5,44.5 Z"/></g>
<g><path style="opacity:1" fill="#bba329" d="M 52.5,42.5 C 51.6618,42.8417 51.3284,43.5084 51.5,44.5C 49.8333,44.5 48.1667,44.5 46.5,44.5C 46.1667,44.5 45.8333,44.5 45.5,44.5C 38.7978,44.3357 32.1311,44.669 25.5,45.5C 24.5116,44.205 23.5116,42.8717 22.5,41.5C 22.3284,40.5084 22.6618,39.8417 23.5,39.5C 25.6963,39.41 27.863,39.0767 30,38.5C 32.1628,38.4947 33.6628,39.4947 34.5,41.5C 34.2964,40.4706 34.7964,39.4706 36,38.5C 37.3988,39.2266 38.8988,39.7266 40.5,40C 39.3044,40.6543 39.3044,41.1543 40.5,41.5C 41.1667,40.8333 41.8333,40.1667 42.5,39.5C 45.652,39.7121 48.9853,39.7121 52.5,39.5C 52.5,40.5 52.5,41.5 52.5,42.5 Z"/></g>
<g><path style="opacity:1" fill="#42402e" d="M 49.5,24.5 C 51.2644,25.326 52.5977,26.6593 53.5,28.5C 52.7193,31.3266 51.386,33.9933 49.5,36.5C 50.782,38.7043 52.4486,39.0376 54.5,37.5C 54.5979,39.5529 53.9313,41.2196 52.5,42.5C 52.5,41.5 52.5,40.5 52.5,39.5C 48.9853,39.7121 45.652,39.7121 42.5,39.5C 41.8333,40.1667 41.1667,40.8333 40.5,41.5C 39.3044,41.1543 39.3044,40.6543 40.5,40C 38.8988,39.7266 37.3988,39.2266 36,38.5C 34.7964,39.4706 34.2964,40.4706 34.5,41.5C 33.6628,39.4947 32.1628,38.4947 30,38.5C 27.863,39.0767 25.6963,39.41 23.5,39.5C 26.0392,36.8507 26.0392,34.184 23.5,31.5C 23.7748,29.1582 24.6081,29.1582 26,31.5C 26.1794,36.9614 27.6794,37.6281 30.5,33.5C 31.5,33.5 32.5,33.5 33.5,33.5C 33.3505,32.448 33.5172,31.448 34,30.5C 34.813,32.4357 35.313,34.4357 35.5,36.5C 36.8333,36.5 38.1667,36.5 39.5,36.5C 39.3118,34.8967 39.8118,33.5634 41,32.5C 42.0495,33.5171 43.2161,33.6838 44.5,33C 45.1029,30.9286 46.4362,29.7619 48.5,29.5C 49.6016,27.9081 48.935,27.0748 46.5,27C 48.1193,26.7645 49.1193,25.9311 49.5,24.5 Z"/></g>
<g><path style="opacity:1" fill="#96b5b6" d="M 23.5,31.5 C 26.0392,34.184 26.0392,36.8507 23.5,39.5C 22.6618,39.8417 22.3284,40.5084 22.5,41.5C 21.6618,41.1583 21.3284,40.4916 21.5,39.5C 21.3359,36.8127 21.5026,34.146 22,31.5C 22.7792,34.0972 23.2792,34.0972 23.5,31.5 Z"/></g>
<g><path style="opacity:1" fill="#98b8b7" d="M 53.5,28.5 C 54.4025,31.3915 54.7359,34.3915 54.5,37.5C 52.4486,39.0376 50.782,38.7043 49.5,36.5C 51.386,33.9933 52.7193,31.3266 53.5,28.5 Z"/></g>
<g><path style="opacity:1" fill="#9ec7c7" d="M 48.5,29.5 C 49.2389,29.369 49.9056,29.5357 50.5,30C 49.0722,31.9162 48.0722,34.0829 47.5,36.5C 46.1544,33.9004 46.4877,31.5671 48.5,29.5 Z"/></g>
<g><path style="opacity:1" fill="#5d6b66" d="M 26.5,23.5 C 27.2625,24.2679 28.2625,24.7679 29.5,25C 28.5,25.3333 27.5,25.6667 26.5,26C 30.8065,26.8661 31.1399,27.8661 27.5,29C 29.1412,30.129 30.1412,31.629 30.5,33.5C 27.6794,37.6281 26.1794,36.9614 26,31.5C 24.6081,29.1582 23.7748,29.1582 23.5,31.5C 23.2792,34.0972 22.7792,34.0972 22,31.5C 21.5026,34.146 21.3359,36.8127 21.5,39.5C 19.1602,32.9989 20.8269,27.6656 26.5,23.5 Z"/></g>
<g><path style="opacity:1" fill="#bde9ed" d="M 49.5,24.5 C 49.1193,25.9311 48.1193,26.7645 46.5,27C 48.935,27.0748 49.6016,27.9081 48.5,29.5C 46.4362,29.7619 45.1029,30.9286 44.5,33C 43.2161,33.6838 42.0495,33.5171 41,32.5C 39.8118,33.5634 39.3118,34.8967 39.5,36.5C 38.1667,36.5 36.8333,36.5 35.5,36.5C 35.313,34.4357 34.813,32.4357 34,30.5C 33.5172,31.448 33.3505,32.448 33.5,33.5C 32.5,33.5 31.5,33.5 30.5,33.5C 30.1412,31.629 29.1412,30.129 27.5,29C 31.1399,27.8661 30.8065,26.8661 26.5,26C 27.5,25.6667 28.5,25.3333 29.5,25C 28.2625,24.7679 27.2625,24.2679 26.5,23.5C 29.6384,21.0387 33.3051,20.0387 37.5,20.5C 42.3139,19.7698 46.3139,21.1031 49.5,24.5 Z"/></g>
<g><path style="opacity:1" fill="#e57981" d="M 35.5,15.5 C 36.8333,16.8333 38.1667,16.8333 39.5,15.5C 39.38,16.5862 38.7133,17.2528 37.5,17.5C 36.2867,17.2528 35.62,16.5862 35.5,15.5 Z"/></g>
<g><path style="opacity:1" fill="#f5d020" d="M 39.5,15.5 C 38.1667,16.8333 36.8333,16.8333 35.5,15.5C 36.8333,12.8333 38.1667,12.8333 39.5,15.5 Z"/></g>
<g><path style="opacity:1" fill="#414355" d="M 46.5,44.5 C 48.1667,44.5 49.8333,44.5 51.5,44.5C 49.8073,47.6818 47.1407,49.3484 43.5,49.5C 45.1002,48.3556 46.7669,47.1889 48.5,46C 47.5842,45.7216 46.9175,45.2216 46.5,44.5 Z"/></g>
<g><path style="opacity:1" fill="#ba9534" d="M 32.5,53.5 C 32.5,54.1667 32.5,54.8333 32.5,55.5C 27.1972,55.0146 22.8639,52.6813 19.5,48.5C 10.4941,34.2471 13.4941,23.2471 28.5,15.5C 29.5,16 30.5,16.5 31.5,17C 28.5815,18.7088 25.7482,20.5421 23,22.5C 13.9307,36.4003 17.0974,46.7336 32.5,53.5 Z"/></g>
<g><path style="opacity:1" fill="#2a9c22" d="M 51.5,49.5 C 52.1667,49.5 52.5,49.8333 52.5,50.5C 52.5,51.1667 52.1667,51.5 51.5,51.5C 50.8333,51.5 50.5,51.1667 50.5,50.5C 50.5,49.8333 50.8333,49.5 51.5,49.5 Z"/></g>
<g><path style="opacity:1" fill="#d4cad4" d="M 50.5,50.5 C 50.5,51.1667 50.8333,51.5 51.5,51.5C 50.8333,52.5 50.1667,53.5 49.5,54.5C 48.8333,54.5 48.1667,54.5 47.5,54.5C 47.6716,53.5084 47.3382,52.8417 46.5,52.5C 47.287,50.8958 48.6203,50.2291 50.5,50.5 Z"/></g>
<g><path style="opacity:1" fill="#9e3cc7" d="M 63.5,51.5 C 63.5,52.1667 63.1667,52.5 62.5,52.5C 59.7029,54.795 57.0362,57.295 54.5,60C 53.2068,60.49 51.8734,60.6567 50.5,60.5C 50.5,60.1667 50.5,59.8333 50.5,59.5C 53.1678,59.1663 55.1678,57.8329 56.5,55.5C 55.4231,54.2949 54.0898,53.6282 52.5,53.5C 55.0284,52.4923 57.1951,50.8257 59,48.5C 59.4828,49.448 59.6495,50.448 59.5,51.5C 60.8333,51.5 62.1667,51.5 63.5,51.5 Z"/></g>
<g><path style="opacity:1" fill="#a043cd" d="M 21.5,53.5 C 20.8592,54.4822 20.1925,55.4822 19.5,56.5C 21.0147,58.0822 22.6814,59.4155 24.5,60.5C 20.1141,59.634 16.6141,57.3006 14,53.5C 13.6012,53.7284 13.4346,54.0618 13.5,54.5C 12.6618,54.1583 12.3284,53.4916 12.5,52.5C 13.9778,52.762 15.3112,52.4287 16.5,51.5C 15.5721,50.2322 15.4054,48.8989 16,47.5C 17.331,49.9962 19.1644,51.9962 21.5,53.5 Z"/></g>
<g><path style="opacity:1" fill="#31a22a" d="M 45.5,52.5 C 45.8333,52.5 46.1667,52.5 46.5,52.5C 47.3382,52.8417 47.6716,53.5084 47.5,54.5C 46.8333,54.5 46.1667,54.5 45.5,54.5C 44.7611,54.631 44.0944,54.4643 43.5,54C 44.4158,53.7216 45.0825,53.2216 45.5,52.5 Z"/></g>
<g><path style="opacity:1" fill="#c499bb" d="M 45.5,52.5 C 45.0825,53.2216 44.4158,53.7216 43.5,54C 44.0944,54.4643 44.7611,54.631 45.5,54.5C 43.3655,56.0334 40.8655,56.7001 38,56.5C 35.9674,56.4944 34.134,56.1611 32.5,55.5C 32.5,54.8333 32.5,54.1667 32.5,53.5C 33.1174,53.6107 33.6174,53.944 34,54.5C 37.7451,53.5116 41.5784,52.845 45.5,52.5 Z"/></g>
<g><path style="opacity:1" fill="#f538f6" d="M 62.5,52.5 C 60.858,57.0664 59.5247,61.7331 58.5,66.5C 44.5,66.5 30.5,66.5 16.5,66.5C 15.9099,62.3967 14.9099,58.3967 13.5,54.5C 13.4346,54.0618 13.6012,53.7284 14,53.5C 16.6141,57.3006 20.1141,59.634 24.5,60.5C 32.6218,64.4605 40.6218,64.4605 48.5,60.5C 49.1667,60.5 49.8333,60.5 50.5,60.5C 51.8734,60.6567 53.2068,60.49 54.5,60C 57.0362,57.295 59.7029,54.795 62.5,52.5 Z"/></g>
<g><path style="opacity:1" fill="#c4bac4" d="M 21.5,53.5 C 26.3329,56.1646 31.4996,57.8313 37,58.5C 39.898,58.3632 42.7314,57.8632 45.5,57C 47.3197,56.7996 48.653,55.9663 49.5,54.5C 50.609,54.4431 51.609,54.1098 52.5,53.5C 54.0898,53.6282 55.4231,54.2949 56.5,55.5C 55.1678,57.8329 53.1678,59.1663 50.5,59.5C 51.895,58.3523 51.7284,57.3523 50,56.5C 48.324,57.0611 46.9906,58.0611 46,59.5C 45.6667,59.1667 45.3333,58.8333 45,58.5C 43.1746,59.1029 41.3413,59.7696 39.5,60.5C 42.4116,61.0685 45.4116,61.0685 48.5,60.5C 40.6218,64.4605 32.6218,64.4605 24.5,60.5C 22.6814,59.4155 21.0147,58.0822 19.5,56.5C 20.1925,55.4822 20.8592,54.4822 21.5,53.5 Z"/></g>
<g><path style="opacity:1" fill="#787578" d="M 50.5,59.5 C 50.5,59.8333 50.5,60.1667 50.5,60.5C 49.8333,60.5 49.1667,60.5 48.5,60.5C 45.4116,61.0685 42.4116,61.0685 39.5,60.5C 41.3413,59.7696 43.1746,59.1029 45,58.5C 45.3333,58.8333 45.6667,59.1667 46,59.5C 46.9906,58.0611 48.324,57.0611 50,56.5C 51.7284,57.3523 51.895,58.3523 50.5,59.5 Z"/></g>
</svg>
